# Blender v2.81 (sub 16) OBJ File: ''
# www.blender.org
mtllib export_400.mtl
o Cube
v 1.000000 1.000000 -1.000000
v 5.117314 -5.586102 -6.329563
v 1.427240 1.185049 1.185049
v 1.367140 -1.421329 1.357664
v -1.000000 1.000000 -1.000000
v -1.000000 -1.000000 -1.000000
v 0.625307 -0.552242 -0.405511
v -1.000000 -1.000000 1.000000
vt 0.625000 0.500000
vt 0.875000 0.500000
vt 0.875000 0.750000
vt 0.625000 0.750000
vt 0.375000 0.750000
vt 0.625000 1.000000
vt 0.375000 1.000000
vt 0.375000 0.000000
vt 0.625000 0.000000
vt 0.625000 0.250000
vt 0.375000 0.250000
vt 0.125000 0.500000
vt 0.375000 0.500000
vt 0.125000 0.750000
vn -0.6284 0.4059 0.6637
vn -0.5843 0.6031 0.5431
vn -0.4130 0.6440 0.6440
vn -0.3899 -0.8911 0.2322
vn 0.9332 0.3131 0.1762
vn -0.3608 0.3608 -0.8600
usemtl Material
s off
f 1/1/1 5/2/1 7/3/1 3/4/1
f 4/5/2 3/4/2 7/6/2 8/7/2
f 8/8/3 7/9/3 5/10/3 6/11/3
f 6/12/4 2/13/4 4/5/4 8/14/4
f 2/13/5 1/1/5 3/4/5 4/5/5
f 6/11/6 5/10/6 1/1/6 2/13/6
