# Blender v2.81 (sub 16) OBJ File: ''
# www.blender.org
mtllib export_600.mtl
o Cube
v 0.322039 7.721150 -1.654978
v -10.824508 -23.500689 -22.433407
v -0.834601 8.598388 6.863898
v -0.671897 -3.757314 7.536875
v 5.736515 7.721150 -1.654978
v 5.736515 -1.759978 -1.654978
v 1.336423 0.362648 0.662764
v 5.736515 -1.759978 6.142444
vt 0.625000 0.500000
vt 0.875000 0.750000
vt 0.625000 0.750000
vt 0.375000 0.750000
vt 0.625000 1.000000
vt 0.375000 1.000000
vt 0.625000 0.000000
vt 0.375000 0.250000
vt 0.375000 0.000000
vt 0.125000 0.500000
vt 0.125000 0.750000
vt 0.375000 0.500000
vt 0.875000 0.500000
vt 0.625000 0.250000
vn -0.9785 -0.1712 -0.1152
vn 0.1677 -0.8664 -0.4703
vn -0.4345 -0.9007 0.0000
vn -0.2976 0.9547 0.0000
vn 0.9583 -0.2245 -0.1767
vn -0.5529 -0.3158 0.7711
vn 0.0000 -0.3004 -0.9538
vn -0.9547 -0.0287 -0.2961
vn -0.4660 0.0000 -0.8848
vn -0.6211 0.7345 -0.2734
vn 0.9910 0.0203 0.1325
vn 0.0000 0.0000 1.0000
usemtl Material
s off
f 1/1/1 7/2/1 3/3/1
f 4/4/2 7/5/2 8/6/2
f 7/7/3 6/8/3 8/9/3
f 6/10/4 4/4/4 8/11/4
f 1/1/5 4/4/5 2/12/5
f 6/8/6 1/1/6 2/12/6
f 1/1/7 5/13/7 7/2/7
f 4/4/8 3/3/8 7/5/8
f 7/7/9 5/14/9 6/8/9
f 6/10/10 2/12/10 4/4/10
f 1/1/11 3/3/11 4/4/11
f 6/8/12 5/14/12 1/1/12
